<?xml version="1.0" encoding="utf-8"?>
<!-- Generator: Adobe Illustrator 16.0.0, SVG Export Plug-In . SVG Version: 6.00 Build 0)  -->
<!DOCTYPE svg PUBLIC "-//W3C//DTD SVG 1.1//EN" "http://www.w3.org/Graphics/SVG/1.1/DTD/svg11.dtd">
<svg version="1.1" id="Layer_1" xmlns="http://www.w3.org/2000/svg" xmlns:xlink="http://www.w3.org/1999/xlink" x="0px" y="0px"
	 width="40px" height="40px" viewBox="-11.5 0 40 40" enable-background="new -11.5 0 40 40" xml:space="preserve">
<g id="firebase">
	<path d="M12.88,14.449l-4.005,3.724l-3.713-7.494l1.921-4.308c0.486-0.865,1.279-0.867,1.768,0L12.88,14.449z"/>
	<path d="M17.401,8.752c0.716-0.686,1.457-0.453,1.645,0.52l3.895,22.633l-12.909,7.738c-0.451,0.25-1.648,0.355-1.648,0.355
		s-1.092-0.131-1.507-0.359L-5.94,32.093L17.401,8.752z"/>
	<path d="M5.306,10.679L-5.94,32.093l5.008-31.295c0.186-0.975,0.738-1.068,1.234-0.208L5.306,10.679z"/>
</g>
</svg>
